<svg width="360" height="12" viewBox="0 0 360 12" fill="none" xmlns="http://www.w3.org/2000/svg">
<path d="M13.8462 0L27.6923 12H0L13.8462 0Z" fill="#FEFCEA" style="fill:#FEFCEA;fill:color(display-p3 0.9961 0.9882 0.9176);fill-opacity:1;"/>
<path d="M41.5376 0L55.3837 12H27.6914L41.5376 0Z" fill="#FEFCEA" style="fill:#FEFCEA;fill:color(display-p3 0.9961 0.9882 0.9176);fill-opacity:1;"/>
<path d="M69.2309 0L83.0771 12H55.3848L69.2309 0Z" fill="#FEFCEA" style="fill:#FEFCEA;fill:color(display-p3 0.9961 0.9882 0.9176);fill-opacity:1;"/>
<path d="M96.9223 0L110.768 12H83.0762L96.9223 0Z" fill="#FEFCEA" style="fill:#FEFCEA;fill:color(display-p3 0.9961 0.9882 0.9176);fill-opacity:1;"/>
<path d="M124.616 0L138.462 12H110.77L124.616 0Z" fill="#FEFCEA" style="fill:#FEFCEA;fill:color(display-p3 0.9961 0.9882 0.9176);fill-opacity:1;"/>
<path d="M152.307 0L166.153 12H138.461L152.307 0Z" fill="#FEFCEA" style="fill:#FEFCEA;fill:color(display-p3 0.9961 0.9882 0.9176);fill-opacity:1;"/>
<path d="M180 0L193.847 12H166.154L180 0Z" fill="#FEFCEA" style="fill:#FEFCEA;fill:color(display-p3 0.9961 0.9882 0.9176);fill-opacity:1;"/>
<path d="M207.692 0L221.538 12H193.846L207.692 0Z" fill="#FEFCEA" style="fill:#FEFCEA;fill:color(display-p3 0.9961 0.9882 0.9176);fill-opacity:1;"/>
<path d="M235.385 0L249.231 12H221.539L235.385 0Z" fill="#FEFCEA" style="fill:#FEFCEA;fill:color(display-p3 0.9961 0.9882 0.9176);fill-opacity:1;"/>
<path d="M263.077 0L276.923 12H249.23L263.077 0Z" fill="#FEFCEA" style="fill:#FEFCEA;fill:color(display-p3 0.9961 0.9882 0.9176);fill-opacity:1;"/>
<path d="M290.77 0L304.616 12H276.924L290.77 0Z" fill="#FEFCEA" style="fill:#FEFCEA;fill:color(display-p3 0.9961 0.9882 0.9176);fill-opacity:1;"/>
<path d="M318.461 0L332.308 12H304.615L318.461 0Z" fill="#FEFCEA" style="fill:#FEFCEA;fill:color(display-p3 0.9961 0.9882 0.9176);fill-opacity:1;"/>
<path d="M346.155 0L360.001 12H332.309L346.155 0Z" fill="#FEFCEA" style="fill:#FEFCEA;fill:color(display-p3 0.9961 0.9882 0.9176);fill-opacity:1;"/>
</svg>
